<svg xmlns="http://www.w3.org/2000/svg" width="67.5" height="67.5" viewBox="0 0 67.5 67.5">
  <g id="グループ_2113" data-name="グループ 2113" transform="translate(6572.5 11535)">
    <rect id="長方形_786" data-name="長方形 786" width="67.5" height="67.5" transform="translate(-6572.5 -11535)" fill="#1c8094"/>
    <g id="グループ_2053" data-name="グループ 2053" transform="translate(-7842.8 -11660.3)">
      <g id="グループ_2052" data-name="グループ 2052">
        <path id="パス_1563" data-name="パス 1563" d="M1279.7,166.6v1.9a11.124,11.124,0,0,1-1,5.3,3.112,3.112,0,0,0-.6-.4,10.252,10.252,0,0,0,.9-4.8V166h3.7v-1.3h.8V166h3.8v.7h-7.6Zm.1,5.9a7.5,7.5,0,0,0,.9-3l.7.1a7.974,7.974,0,0,1-.9,3.2Zm4.7.4c.4,0,.5-.2.5-1.7.2.1.5.2.7.3-.1,1.6-.3,2.1-1.1,2.1h-1.5c-.9,0-1.1-.2-1.1-1.1v-3.9h.7v3.9c0,.3.1.4.5.4Zm-.1-3.9a15.293,15.293,0,0,0-2.3-1.5l.5-.5a10.166,10.166,0,0,1,2.3,1.5Zm1.6.2a11.309,11.309,0,0,1,1.5,3.2l-.7.3a14.743,14.743,0,0,0-1.4-3.3Z" fill="#fff" stroke="#fff" stroke-linecap="round" stroke-width="0.5"/>
        <path id="パス_1564" data-name="パス 1564" d="M1294.6,170.4a6.774,6.774,0,0,0,2.4,1.2,1.47,1.47,0,0,0-.5.6,5.911,5.911,0,0,1-1.4-.6v.1c-.1,1.1-.2,1.6-.4,1.8s-.3.2-.6.2h-1.2a1.422,1.422,0,0,0-.2-.6h1.1c.2,0,.2,0,.3-.1a2.388,2.388,0,0,0,.3-1.1h-2.2c-.4.9-1.3,1.5-3,1.9a2.09,2.09,0,0,0-.4-.6,3.929,3.929,0,0,0,2.6-1.3h-1.9v-.3a6.12,6.12,0,0,1-1.2.5,2.182,2.182,0,0,0-.4-.5,7.5,7.5,0,0,0,2.2-1.1h-2v-.6h2.6a2.092,2.092,0,0,0,.4-.6h-1.9v-2.7h6.5v2.7h-3.9l-.3.6h5.3v.6h-2.2Zm-4.3-4.5h-2.2v-.6h2.2v-.7h.7v.7h2.6v-.7h.7v.7h2.3v.6h-2.3v.5h-.7v-.5H1291v.5h-.7Zm4.5,5.4a4.5,4.5,0,0,1-1-.9H1291a6.233,6.233,0,0,1-1.2.9h1.8c.1-.2.1-.5.2-.7h.7a1.854,1.854,0,0,1-.2.7Zm-5-3.6h5.1V167h-5.1Zm0,1.1h5.1v-.6h-5.1Z" fill="#fff" stroke="#fff" stroke-linecap="round" stroke-width="0.5"/>
        <path id="パス_1565" data-name="パス 1565" d="M1304.8,166.3c-.1.1-.1.3-.2.5a9.642,9.642,0,0,1-1.5,3.7,7.619,7.619,0,0,1-3.9,2.7l-.7-.7a6.569,6.569,0,0,0,3.9-2.4,7.157,7.157,0,0,0,1.3-3.3h-6.1v-.9c.3,0,.7.1,1,.1h5.5Z" fill="#fff" stroke="#fff" stroke-linecap="round" stroke-width="0.5"/>
        <path id="パス_1566" data-name="パス 1566" d="M1311.9,168.3h.7v.8h-2c0,1.3,0,2.9.1,3.8a.713.713,0,0,1-.8.7,6.6,6.6,0,0,1-1.4-.1v-.7a5.284,5.284,0,0,0,1.2.1.265.265,0,0,0,.3-.3v-2.8a10.257,10.257,0,0,1-3.5,2.9l-.6-.6a9.592,9.592,0,0,0,3.7-3.1h-3.5v-.8h3.7v-.8a1.953,1.953,0,0,0-.1-.7h.8v1.5h1.4Z" fill="#fff" stroke="#fff" stroke-linecap="round" stroke-width="0.5"/>
        <path id="パス_1567" data-name="パス 1567" d="M1313.7,168.6h8v1c-.2,0-.6-.1-1.1-.1h-5.5a5.722,5.722,0,0,0-1.4.1Z" fill="#fff" stroke="#fff" stroke-linecap="round" stroke-width="0.5"/>
        <path id="パス_1568" data-name="パス 1568" d="M1329.1,173.3a4.879,4.879,0,0,0-.6-1.3c-1.5.2-4.9.6-6.2.7-.2,0-.5.1-.8.1l-.1-.9h1.4c.6-1.4,1.6-4.6,1.9-5.6a5.757,5.757,0,0,0,.2-1l1,.2a4.657,4.657,0,0,0-.3.9c-.3.9-1.3,4-1.8,5.3,1.5-.1,3.4-.4,4.5-.5a8.748,8.748,0,0,0-1.2-2l.7-.3a23.211,23.211,0,0,1,2.2,4.1Z" fill="#fff" stroke="#fff" stroke-linecap="round" stroke-width="0.5"/>
      </g>
    </g>
    <path id="パス_1569" data-name="パス 1569" d="M1294.7,145.9l18.7-1.5-10.7,15.3-.3-9Z" transform="translate(-7842.8 -11660.3)" fill="#fff"/>
  </g>
</svg>
