<svg xmlns="http://www.w3.org/2000/svg" width="166.824" height="79.296" viewBox="0 0 166.824 79.296">
  <path id="パス_1835" data-name="パス 1835" d="M-81.564.42A2.979,2.979,0,0,1-83.118.084a.932.932,0,0,1-.546-.756q0-.924,1.764-1.512A11.384,11.384,0,0,0-77.07-4.2,4.813,4.813,0,0,0-75.6-8.064V-46.788a7.923,7.923,0,0,0-.42-2.982,2.916,2.916,0,0,0-1.428-1.47,13.477,13.477,0,0,0-3.36-.924q-2.436-.5-2.436-1.68,0-1.092,2.184-1.092,2.268,0,5.628.168,3.024.168,4.7.168l5.376-.084q3.7-.168,5.88-.168,2.1,0,2.1,1.008,0,1.176-2.436,1.68A19.672,19.672,0,0,0-65.142-50.4,3.407,3.407,0,0,0-66.7-47.208V-8.316a4.917,4.917,0,0,0,1.218,3.738Q-64.26-3.444-60.9-3.444h9.744a10.108,10.108,0,0,0,3.654-.63,9.427,9.427,0,0,0,2.73-1.554,18.825,18.825,0,0,0,2.436-2.73A22.244,22.244,0,0,0-40.4-11.844a19.8,19.8,0,0,1,1.092-1.974,1.157,1.157,0,0,1,.924-.63.893.893,0,0,1,.8.5,2.13,2.13,0,0,1,.294,1.092,1.233,1.233,0,0,1-.084.462,1.233,1.233,0,0,0-.084.462Q-38.64-7.728-39.1-5.67a38.471,38.471,0,0,0-.714,4.578Q-39.984.42-41.076.42q-4.368,0-14.448-.168Q-62.916,0-69.972,0-73.92,0-78.96.336Zm65.184.756a17.507,17.507,0,0,1-8.694-2.184A16.037,16.037,0,0,1-31.248-7.14a17.387,17.387,0,0,1-2.268-8.82A18.892,18.892,0,0,1-31-25.326a20.158,20.158,0,0,1,6.888-7.266,17.378,17.378,0,0,1,9.492-2.772A17.575,17.575,0,0,1-5.67-33.012a17.558,17.558,0,0,1,6.426,6.3,16.293,16.293,0,0,1,2.352,8.484A21.3,21.3,0,0,1,.882-8.568a17.041,17.041,0,0,1-6.636,7.1A20.285,20.285,0,0,1-16.38,1.176Zm1.764-2.94q5.208,0,7.392-3.948,1.764-3.276,1.764-10.5a22.927,22.927,0,0,0-1.344-7.9,15.2,15.2,0,0,0-3.738-5.964,7.769,7.769,0,0,0-5.5-2.268,9.123,9.123,0,0,0-3.528.63,7.292,7.292,0,0,0-2.772,2.142,11.338,11.338,0,0,0-2.016,4.746,35.347,35.347,0,0,0-.588,6.93A22.68,22.68,0,0,0-23.6-10.08a15.584,15.584,0,0,0,3.738,6.006A7.425,7.425,0,0,0-14.616-1.764Zm58.128-31.5a1.034,1.034,0,0,1,.84.42,1.7,1.7,0,0,1,.336,1.092,2.955,2.955,0,0,1-.252,1.05,3.079,3.079,0,0,1-.672,1.05,1.376,1.376,0,0,1-.84.5H40.656q-2.184,0-2.6.672a9.85,9.85,0,0,0-.5,3.864,16.437,16.437,0,0,1-1.974,7.938,15.9,15.9,0,0,1-5.292,5.838A12.812,12.812,0,0,1,23.1-8.652a14.121,14.121,0,0,1-4.872-.924A7.5,7.5,0,0,0,16.17-8.022a2.5,2.5,0,0,0-.8,1.554q0,1.6,2.688,2.52A36.831,36.831,0,0,0,26.628-2.6q8.232.5,12.1,2.6t3.864,5.964a15.174,15.174,0,0,1-2.94,8.652,23.445,23.445,0,0,1-7.6,7.014,18.381,18.381,0,0,1-9.366,2.73q-7.476,0-11.8-2.646a8.149,8.149,0,0,1-4.326-7.266,9.26,9.26,0,0,1,.672-3.822A8.244,8.244,0,0,1,9.492,7.812l6.3-4.872A11.282,11.282,0,0,1,10.584.42,5.571,5.571,0,0,1,8.988-3.7,3.982,3.982,0,0,1,11-6.888q1.764-1.344,2.94-2.268a9.425,9.425,0,0,0,1.68-1.6A15.316,15.316,0,0,1,10.71-15.5a11.24,11.24,0,0,1-1.89-6.258,12.138,12.138,0,0,1,2.142-7.056,14.7,14.7,0,0,1,5.712-4.872,16.934,16.934,0,0,1,7.6-1.764,24.047,24.047,0,0,1,6.048,1.008q1.68.5,2.52.672a23.548,23.548,0,0,0,6.048.756q.924,0,2.772-.168Zm-19.74,21.42q2.94,0,4.872-3.108a14.9,14.9,0,0,0,1.932-7.98,10.875,10.875,0,0,0-2.184-6.8,6.348,6.348,0,0,0-5.124-2.856q-2.772,0-4.83,2.94a11.707,11.707,0,0,0-2.058,6.888,13.355,13.355,0,0,0,2.184,7.728Q20.748-11.844,23.772-11.844ZM35.7,9.66a4.038,4.038,0,0,0-2.688-3.78q-2.688-1.26-9.324-1.764l-4.368-.5a15.782,15.782,0,0,0-4.578,4.2,8.641,8.641,0,0,0-1.386,4.872A6.937,6.937,0,0,0,16.3,18.4,11.608,11.608,0,0,0,23.6,20.664q5.292,0,8.064-2.268a10.053,10.053,0,0,0,2.982-3.822A11.737,11.737,0,0,0,35.7,9.66ZM63.672,1.176a17.507,17.507,0,0,1-8.694-2.184A16.037,16.037,0,0,1,48.8-7.14a17.386,17.386,0,0,1-2.268-8.82,18.892,18.892,0,0,1,2.52-9.366,20.158,20.158,0,0,1,6.888-7.266,17.378,17.378,0,0,1,9.492-2.772,17.576,17.576,0,0,1,8.946,2.352,17.558,17.558,0,0,1,6.426,6.3,16.293,16.293,0,0,1,2.352,8.484,21.3,21.3,0,0,1-2.226,9.66A17.041,17.041,0,0,1,74.3-1.47,20.285,20.285,0,0,1,63.672,1.176Zm1.764-2.94q5.208,0,7.392-3.948,1.764-3.276,1.764-10.5a22.927,22.927,0,0,0-1.344-7.9,15.2,15.2,0,0,0-3.738-5.964,7.769,7.769,0,0,0-5.5-2.268,9.123,9.123,0,0,0-3.528.63,7.292,7.292,0,0,0-2.772,2.142,11.338,11.338,0,0,0-2.016,4.746,35.347,35.347,0,0,0-.588,6.93,22.68,22.68,0,0,0,1.344,7.812,15.584,15.584,0,0,0,3.738,6.006A7.425,7.425,0,0,0,65.436-1.764Z" transform="translate(83.664 54.936)" fill="#fff"/>
</svg>
