<?xml version="1.0" encoding="UTF-8"?><svg id="_レイヤー_2" xmlns="http://www.w3.org/2000/svg" viewBox="0 0 187.57 70"><defs><style>.cls-1{fill:none;}.cls-2{fill:#00979c;}.cls-3{fill:#0098cb;}.cls-4{fill:#09c;}.cls-5{fill:#2eb6aa;}.cls-6{fill:#aac00d;}.cls-7{fill:#c3cb00;}.cls-8{fill:#18943b;}.cls-9{fill:#29648d;}.cls-10{fill:#2cb5a9;}.cls-11{fill:#4da635;}</style></defs><g id="_レイヤー_1-2"><g><g><path class="cls-9" d="M91.42,56.52c-3.71,0-7.42-.86-10.71-2.54v-4.27c3.14,1.67,6.7,2.64,10.35,2.64s9.25-1.12,9.25-5.79c0-8.53-19.91-2.74-19.91-15.49,0-7.36,7.82-10.31,14.01-10.31,3.45,0,6.87,.71,10.06,1.93v4.63c-3.05-1.72-6.56-2.69-10.06-2.69-3.24,0-7.93,.92-7.93,5.09,0,8.07,19.46,2.63,19.46,15.84,0,8.23-7.47,10.98-14.52,10.98Z"/><path class="cls-9" d="M142.27,30.6c0,4.33-4.17,5.09-7.63,5.09h-8.58v-9.86h8.64c3.45,0,7.57,.36,7.57,4.77Zm7.3,25.1c-3.66-5.34-6.9-10.92-10.31-16.46,5.24-.71,9.55-3.15,9.55-8.94,0-6.86-5.9-8.64-11.73-8.64h-17.32c.51,11.33,.51,22.81,0,34.08,2.19-.31,4.42-.31,6.61,0-.31-5.33-.31-10.57-.31-15.89h6.77c3.3,5.33,6.54,10.26,9.14,15.95,2.54-.31,5.07-.37,7.61-.11Z"/><path class="cls-9" d="M178.63,56.52c-10.25,0-17.83-6.86-17.83-17.27s7.06-18.49,17.53-18.49c2.99,0,5.94,.61,8.68,1.83v4.72c-2.39-1.37-5.08-2.24-7.88-2.24-7.62,0-11.84,6.49-11.84,13.62,0,7.56,4.42,13.45,12.35,13.45,2.78,0,5.54-.81,7.92-2.29v4.73c-2.79,1.37-5.89,1.93-8.94,1.93Z"/></g><g><path class="cls-1" d="M21.71,20.5c-.58,.24-1.09,.49-1.57,.79-.47,.3-.87,.6-1.18,.93-.43,.39-.68,.75-.85,1.11-.17,.36-.21,.7-.21,1.06,.34,.51,.85,.88,1.54,1.16,.7,.27,1.51,.43,2.51,.44,1,0,2.05-.05,3.21-.18,.87-.1,1.74-.25,2.66-.45-1.15-.95-2.09-2.16-3.22-3.88-.32-.51-.64-1.05-.93-1.63-.21,.05-.43,.12-.66,.19-.43,.14-.85,.29-1.3,.47Z"/><path class="cls-1" d="M32.46,50.04c-1.82,2.72-2.94,4.45-3.58,5.61-.17,.25-.3,.49-.44,.7,1.17,.7,2.45,1.31,3.91,1.88,.24,.06,2.19,.57,2.19,.57l.79,.21c.3,.09,.55,.16,.76,.2,.27-1.63,.45-3.08,.53-4.49,.07-2.01,.06-3.46-.05-4.69-.16-1.26-.29-2.29-.38-3.26-.12-.88-.05-1.69,.13-2.55-.03-.02-.07-.03-.11-.06-.86,1.46-2.09,3.35-3.77,5.88Z"/><path class="cls-1" d="M43.85,37.04s0,.02,.01,.02l.09,.12,.2,.25h0c.96,1.27,1.37,2.56,1.24,3.79,.63,0,1.2-.05,1.76-.16,1.02-.17,1.85-.66,2.46-1.62,1.41-2.55,.33-4.86-3.64-6.89-.97-.48-1.87-.89-2.85-1.31-.02-.01-.06-.03-.07-.04-.39,1.06-.91,2.22-1.54,3.54,.85,.71,1.63,1.47,2.33,2.29Z"/><path class="cls-7" d="M46.25,60.4c.05,.36,.2,.86,.54,1.51,.33,.64,.49,1.15,.52,1.56,.07,.44-.11,.83-.45,1.24-1.02,1.12-2.3,1.75-4,1.81-1.86,.03-3.18-.22-4.51-.8-2.15-1-2.98-2.29-2.64-4.21,.14-.81,.27-1.57,.39-2.29-.21-.05-.46-.12-.76-.2l-.79-.21s-1.94-.5-2.19-.57c-1.46-.57-2.75-1.18-3.91-1.88-.3,.52-.5,.93-.7,1.21-.18,.37-.48,.72-.89,1.26-.42,.54-.83,.9-1.22,1.18-.47,.27-.88,.28-1.43,.08-.81-.35-1.11-1.23-.9-2.81-.61,.46-1.23,.85-1.87,1.18-.31,.08-.57,.17-.83,.26-.24,.1-.46,.2-.68,.3-1.3,.25-2.61,.18-4.12-.19-.23-.06-.46-.13-.7-.2,.72,1.3,1.63,2.52,2.84,3.79,2.2,2.3,4.57,4.01,7.47,5.37,3.16,1.45,6.22,2.13,9.95,2.21,4.85,.04,8.71-.85,11.79-2.74,0,0,.01,0,.02-.01,1.32-.9,2.18-1.81,2.67-2.89,.42-.94,.41-1.88-.03-2.97,0,0,0-.01,0-.02-.48-1-1.41-1.69-2.75-2.04-.21-.06-.45-.1-.71-.12-.09,.64-.13,1.01-.1,1.19Z"/><path class="cls-7" d="M37.21,42.48c.76-.79,1.44-1.17,2.25-1.37,.79-.11,1.92-.13,3.66,0,.86,.08,1.6,.12,2.28,.11,.13-1.23-.29-2.52-1.24-3.79h0l-.2-.25-.09-.12s-.01-.01-.01-.02c-.7-.82-1.49-1.58-2.33-2.29-.27,.55-.54,1.11-.84,1.7-1.04,2.09-2.12,3.93-3.47,6.03Z"/><path class="cls-7" d="M14.01,46.78c1.12-.27,2.01-.79,2.72-1.54,.71-.75,1.19-1.67,1.48-2.74,.12-.33,.2-.67,.23-1,.04-.32,.03-.62-.03-.88-.06-.31-.2-.59-.38-.85-1.44,.39-2.57,1.54-3.51,3.57-.53,1.17-.92,2.31-1.17,3.45,.26,0,.48,0,.65,0Z"/><path class="cls-6" d="M36.23,44.17s.07,.04,.11,.06c.02-.12,.05-.23,.07-.35-.05,.1-.12,.2-.18,.29Z"/><path class="cls-4" d="M19.48,39.64h0s.03,0,.06,0c-.11-.08-.22-.16-.32-.26-.03-.02-.05-.03-.06-.06-.33-.41-.54-.86-.64-1.37,0-.02,0-.05,0-.08v-.02c.04-1.44,.58-2.67,1.65-3.76,1.42-1.43,3.07-2.36,4.49-3.08,1.62-.8,3.07-1.16,4.69-1.17h.01c.08,0,.16,.01,.25,.02,.02-.97,0-2-.04-3.13,0,0-.63-.43-1.52-1.2-.08-.06-.16-.12-.23-.18-.92,.2-1.79,.35-2.66,.45-1.16,.14-2.21,.19-3.21,.18-1,0-1.82-.16-2.51-.44-.69-.28-1.19-.66-1.54-1.16,0-.36,.04-.7,.21-1.06,.17-.36,.42-.71,.85-1.11,.31-.33,.71-.63,1.18-.93,.48-.3,1-.56,1.57-.79,.45-.18,.88-.33,1.3-.47,.22-.07,.44-.14,.66-.19-.8-1.56-1.49-3.45-2.08-5.97v-.03c-.64,.08-1.29,.18-1.95,.3-1.51,.3-2.94,.68-4.39,1.16-3.06,1.05-5.5,2.05-7.63,3.18-2.15,1.16-3.81,2.35-5.14,3.66-1.32,1.35-2.05,2.55-2.35,3.74-.29,1.18-.12,2.24,.43,3.39,.05,.09,.13,.19,.23,.31,.09,.12,.19,.25,.27,.41,.14,.16,.25,.31,.34,.46,.11,.15,.2,.28,.33,.41,.28,.4,1.03,.91,2.24,1.58,1.22,.67,2.78,1.48,4.81,2.42,2.05,.97,3.67,1.73,5.05,2.39,1.38,.65,2.38,1.14,3.1,1.5,.41,.24,.73,.52,1,.83,.04,.06,.09,.12,.12,.18,.13-.04,.26-.09,.39-.1,.25-.05,.63-.06,1.04-.02Z"/><path class="cls-4" d="M13.01,50.38c-.02-1.23,.11-2.42,.36-3.6-.22,0-.47,0-.77-.02-.65-.04-1.44-.12-2.48-.29-.96-.13-1.79-.27-2.54-.41-.75-.13-1.34-.23-1.8-.28-.39-.04-.7-.03-1,.02-.29,.06-.54,.15-.8,.27-.23,.15-.37,.35-.43,.64-.05,.3-.02,.65,.12,1.09,.58,1.71,1.52,3.39,2.8,4.98,1.29,1.58,2.79,2.91,4.54,3.96,1.48,.88,2.81,1.49,4.09,1.89-.61-1.1-1.07-2.25-1.42-3.54-.45-1.6-.66-3.1-.67-4.7Z"/><path class="cls-3" d="M15.31,15.29h0Z"/><path class="cls-4" d="M27.6,42.6c.26-.85,.5-1.75,.73-2.73-.12-.01-.22-.04-.34-.05-.48-.04-1.36,0-2.77,.39-1.26,.33-2.33,.49-3.18,.46-.05,0-.12-.01-.17-.03,0,0-.27-.1-.56-.22,.31,.29,.56,.67,.73,1.12,.02,.05,.03,.1,.04,.15v.11s0,.08,0,.08c0,.04,0,.07,0,.12,0,.32-.06,.75-.15,1.37l-.1,.79s0,.03,0,.04c-.3,1.33-.4,2.33-.45,3.15,.31,2.18,1.24,3.99,3,5.82,.55-1.7,1.08-3.26,1.59-4.94,.59-2.06,1.19-3.82,1.63-5.63Z"/><path class="cls-3" d="M15.25,15.31s0,0,0,0c0,0,.03,0,.03,0,0,0-.03,0-.04,.01Z"/><path class="cls-3" d="M15.31,15.29s.03,0,.03-.01c0,0-.03,0-.03,.01Z"/><path class="cls-8" d="M19.92,59.02c.22-.1,.44-.2,.68-.3,.26-.1,.52-.18,.83-.26,.64-.33,1.25-.72,1.87-1.18,.11-.82,.35-1.82,.73-3.04,.12-.36,.23-.72,.35-1.07-1.76-1.83-2.7-3.65-3-5.82,.05-.81,.15-1.82,.45-3.15,0,0,0-.02,0-.04l.1-.79c.09-.62,.15-1.05,.15-1.37,0-.05,0-.09,0-.12v-.08s0-.11,0-.11c0-.04-.02-.1-.04-.15-.17-.45-.42-.83-.73-1.12,.29,.12,.56,.22,.56,.22,.05,.02,.12,.03,.17,.03,.85,.02,1.92-.13,3.18-.46,1.42-.39,2.29-.43,2.77-.39,.12,0,.23,.04,.34,.05,.24-1.04,.46-2.18,.66-3.47,.29-1.81,.56-3.9,.62-6.53-.09,0-.17-.01-.25-.02h-.01c-1.61,0-3.06,.37-4.69,1.17-1.42,.72-3.06,1.64-4.49,3.08-1.07,1.09-1.6,2.32-1.65,3.76v.02s0,.06,0,.08c.09,.51,.3,.96,.64,1.37,0,.02,.03,.04,.06,.06,.1,.1,.21,.18,.32,.26-.02,0-.03,0-.06,0h0c-.42-.03-.79-.03-1.04,.02-.13,.01-.26,.06-.39,.1,.18,.26,.31,.54,.38,.85,.06,.27,.07,.56,.03,.88-.03,.33-.11,.66-.23,1-.29,1.07-.77,1.99-1.48,2.74-.72,.75-1.6,1.27-2.72,1.54-.17,0-.39,.01-.65,0-.25,1.18-.38,2.37-.36,3.6,0,1.6,.22,3.09,.67,4.7,.34,1.29,.81,2.45,1.42,3.54,.24,.07,.47,.14,.7,.2,1.51,.37,2.81,.44,4.12,.19Z"/><path class="cls-5" d="M40.87,8.5c2.34,0,4.25-1.9,4.25-4.25s-1.91-4.25-4.25-4.25-4.25,1.91-4.25,4.25,1.91,4.25,4.25,4.25Z"/><path class="cls-5" d="M65.99,37.51c-.27-2.76-1.48-5.24-3.3-7.64-2.1-2.74-4.63-5.49-8.37-8.19-2.74-1.93-5.56-3.45-9.26-4.42-.11-.71-.42-1.73-1.56-3.36-.95-1.39-2.74-2.51-5.72-3.15-2.64-.52-4.18-.29-5.2,.41-.87,.83-1.44,1.45-1.64,1.97-1.09-.55-2.02-1.11-3.18-1.66-1.16-.54-2.11-.86-2.96-.96-2.88-.25-3.73,.68-3.21,3.32,.82-.11,1.62-.18,2.44-.22,1.53-.07,2.82-.03,4.01,.12,1.17,.15,2.11,.41,2.94,.73,.26,.06,.44,.18,.54,.35,.1,.17,.13,.39,.09,.66-.03,.24-.16,.5-.36,.78-.21,.28-.47,.56-.81,.87-.38,.33-.75,.62-1.16,.9-.41,.29-.81,.54-1.25,.78-.94,.27-1.68,.44-2.32,.59-.63,.14-1.11,.24-1.49,.32-.19,.04-.37,.08-.55,.13,.29,.58,.6,1.12,.93,1.63,1.13,1.73,2.07,2.93,3.22,3.88,.3-.06,.62-.15,.94-.22,1.29-.33,2.36-.62,3.28-.78,.91-.16,1.61-.19,2.16-.02,.74,.18,1.3,.51,1.73,1.04,.42,.54,.66,1.25,.75,2.19,.1,1.13,0,2.51-.27,4.11,1.92,.83,3.63,1.87,5.11,3.08,.63-1.32,1.15-2.48,1.54-3.54,.02,.01,.05,.03,.07,.04,.99,.42,1.88,.83,2.85,1.31,3.97,2.03,5.05,4.34,3.64,6.89-.61,.97-1.44,1.45-2.46,1.62-.56,.1-1.13,.15-1.76,.16-.06,.58-.24,1.15-.54,1.7,0,0-.01,.02-.01,.02-1.1,1.78-3.02,2.56-5.69,2.32-.03,0-.05,0-.08-.01-1.07-.26-1.95-.58-2.73-1.03-.18,.87-.25,1.67-.13,2.55,.09,.97,.21,2,.38,3.26,.1,1.23,.12,2.68,.05,4.69-.08,1.41-.26,2.86-.53,4.49,.03,0,.06,0,.09,.01h.06c.39,.08,.79,.16,1.36,.28,1.15,.16,2.68,.11,4.53-.12,1.75-.25,3.16-.31,4.22-.18,.09-.6,.2-1.43,.36-2.55,.32-2.16,.36-4.01,.18-5.71-.15-1.65-.81-2.84-1.9-3.62,3.62,1.69,6.71,2.2,10.38,1.69,3.6-.59,6.56-1.68,8.78-4.32,1.58-1.99,2.17-4.24,1.84-7.18Z"/><path class="cls-5" d="M32.46,50.04c1.68-2.52,2.91-4.42,3.77-5.88-.04-.02-.1-.05-.16-.08-.85-.45-1.78-1.04-2.89-1.85-.54,1.27-1.12,2.56-1.76,3.83-1.75,3.48-3.39,6.13-5.07,8.18-.12,.15-.23,.27-.34,.41,.76,.62,1.56,1.19,2.43,1.71,.13-.21,.27-.45,.44-.7,.64-1.16,1.76-2.9,3.58-5.61Z"/><path class="cls-10" d="M37.76,10.75s.02,0,.03,0h.02s-.03,0-.05,0Z"/><path class="cls-10" d="M37.76,10.75s-.04-.01-.07-.02c.02,0,.04,.01,.07,.02Z"/><path class="cls-11" d="M33.18,42.23c1.11,.81,2.03,1.4,2.89,1.85,.06,.03,.12,.06,.16,.08,.06-.09,.13-.2,.18-.29-.02,.12-.05,.23-.07,.35,.79,.44,1.66,.77,2.73,1.03,.03,0,.05,.01,.08,.01,2.67,.24,4.59-.53,5.69-2.32,0,0,0-.01,.01-.02,.3-.55,.49-1.12,.54-1.7-.68,0-1.42-.03-2.28-.11-1.74-.13-2.87-.11-3.66,0-.81,.19-1.49,.58-2.25,1.37,1.35-2.09,2.42-3.94,3.47-6.03,.3-.6,.58-1.16,.84-1.7-1.48-1.21-3.19-2.24-5.11-3.08-.21,1.2-.5,2.52-.9,3.97-.61,2.12-1.39,4.35-2.33,6.6Z"/><path class="cls-11" d="M42.13,59.39c-1.85,.23-3.38,.27-4.53,.12-.57-.12-.97-.2-1.36-.27h-.06s-.06-.03-.09-.03c-.12,.72-.25,1.48-.39,2.29-.33,1.93,.49,3.21,2.64,4.21,1.33,.58,2.65,.83,4.51,.8,1.7-.07,2.98-.69,4-1.81,.34-.41,.52-.8,.45-1.24-.03-.41-.19-.92-.52-1.56-.33-.64-.49-1.15-.54-1.51-.03-.18,.02-.56,.1-1.19-1.06-.13-2.47-.07-4.22,.18Z"/><path class="cls-11" d="M23.3,57.28c-.21,1.58,.09,2.46,.9,2.81,.55,.2,.97,.19,1.43-.08,.39-.28,.81-.65,1.22-1.18,.4-.54,.71-.89,.89-1.26,.2-.28,.4-.69,.7-1.21-.87-.52-1.67-1.09-2.43-1.71-.91,1.07-1.81,1.93-2.71,2.63Z"/><path class="cls-2" d="M23.67,19.84c.18-.05,.36-.09,.55-.13,.38-.09,.87-.18,1.49-.32,.64-.15,1.38-.32,2.32-.59,.44-.24,.84-.49,1.25-.78,.42-.28,.78-.57,1.16-.9,.33-.31,.6-.59,.81-.87,.2-.28,.33-.54,.36-.78,.04-.27,0-.49-.09-.66-.11-.17-.29-.28-.54-.35-.83-.33-1.77-.58-2.94-.73-1.19-.15-2.48-.19-4.01-.12-.82,.04-1.62,.12-2.44,.22v.03c.58,2.52,1.28,4.41,2.08,5.97Z"/><path class="cls-2" d="M26.01,54.65c.12-.13,.23-.26,.34-.41,1.67-2.05,3.31-4.7,5.07-8.18,.64-1.27,1.23-2.55,1.76-3.83-.05-.03-.09-.06-.14-.1-1.21-.84-2.01-1.33-2.66-1.63-.02,0-.02,0-.03-.01-.65-.34-1.29-.54-2.02-.63-.23,.99-.47,1.88-.73,2.73-.43,1.81-1.03,3.56-1.63,5.63-.51,1.69-1.04,3.24-1.59,4.94,.07,.07,.14,.15,.21,.23,.46,.44,.94,.86,1.42,1.26Z"/><path class="cls-2" d="M29.57,26.74c.05,1.12,.06,2.16,.04,3.13,1.78,.09,3.6,.53,6.2,1.54,.2,.09,.39,.18,.6,.27,.27-1.6,.36-2.98,.27-4.11-.09-.94-.33-1.64-.75-2.19-.43-.53-.98-.85-1.73-1.04-.54-.17-1.24-.14-2.16,.02-.92,.16-1.99,.44-3.28,.78-.32,.07-.64,.15-.94,.22,.07,.06,.15,.13,.23,.18,.89,.77,1.52,1.2,1.52,1.2Z"/><path class="cls-8" d="M29.61,29.87c-.06,2.63-.33,4.72-.62,6.53-.21,1.29-.42,2.43-.66,3.47,.73,.1,1.37,.29,2.02,.63,0,0,.01,.01,.03,.01,.66,.3,1.45,.79,2.66,1.63,.05,.04,.09,.07,.14,.1,.94-2.25,1.71-4.48,2.33-6.6,.39-1.45,.69-2.76,.9-3.97-.21-.09-.39-.18-.6-.27-2.6-1-4.42-1.45-6.2-1.54Z"/><path class="cls-8" d="M26.01,54.65c-.48-.4-.96-.81-1.42-1.26-.07-.08-.14-.15-.21-.23-.12,.36-.23,.71-.35,1.07-.38,1.22-.62,2.22-.73,3.04,.9-.69,1.79-1.55,2.71-2.63Z"/></g></g></g></svg>