<svg xmlns="http://www.w3.org/2000/svg" width="187.57" height="70.001" viewBox="0 0 187.57 70.001">
  <g id="_レイヤー_1-2" transform="translate(0.01)">
    <g id="グループ_1929" data-name="グループ 1929">
      <g id="グループ_1927" data-name="グループ 1927">
        <path id="パス_1310" data-name="パス 1310" d="M91.42,56.52a23.647,23.647,0,0,1-10.71-2.54V49.71a22.13,22.13,0,0,0,10.35,2.64c3.65,0,9.25-1.12,9.25-5.79,0-8.53-19.91-2.74-19.91-15.49,0-7.36,7.82-10.31,14.01-10.31a28.279,28.279,0,0,1,10.06,1.93v4.63a20.665,20.665,0,0,0-10.06-2.69c-3.24,0-7.93.92-7.93,5.09,0,8.07,19.46,2.63,19.46,15.84,0,8.23-7.47,10.98-14.52,10.98Z" fill="#fff"/>
        <path id="パス_1311" data-name="パス 1311" d="M142.27,30.6c0,4.33-4.17,5.09-7.63,5.09h-8.58V25.83h8.64c3.45,0,7.57.36,7.57,4.77Zm7.3,25.1c-3.66-5.34-6.9-10.92-10.31-16.46,5.24-.71,9.55-3.15,9.55-8.94,0-6.86-5.9-8.64-11.73-8.64H119.76c.51,11.33.51,22.81,0,34.08a23.607,23.607,0,0,1,6.61,0c-.31-5.33-.31-10.57-.31-15.89h6.77c3.3,5.33,6.54,10.26,9.14,15.95a33.984,33.984,0,0,1,7.61-.11Z" fill="#fff"/>
        <path id="パス_1312" data-name="パス 1312" d="M178.63,56.52c-10.25,0-17.83-6.86-17.83-17.27s7.06-18.49,17.53-18.49a21.3,21.3,0,0,1,8.68,1.83v4.72a15.913,15.913,0,0,0-7.88-2.24c-7.62,0-11.84,6.49-11.84,13.62,0,7.56,4.42,13.45,12.35,13.45a15.068,15.068,0,0,0,7.92-2.29v4.73a20.263,20.263,0,0,1-8.94,1.93Z" fill="#fff"/>
      </g>
      <g id="グループ_1928" data-name="グループ 1928">
        <path id="パス_1313" data-name="パス 1313" d="M21.71,20.5a10.46,10.46,0,0,0-1.57.79,6.143,6.143,0,0,0-1.18.93,3.465,3.465,0,0,0-.85,1.11,2.364,2.364,0,0,0-.21,1.06,3.207,3.207,0,0,0,1.54,1.16,7.05,7.05,0,0,0,2.51.44,28.493,28.493,0,0,0,3.21-.18,26.886,26.886,0,0,0,2.66-.45,16.682,16.682,0,0,1-3.22-3.88c-.32-.51-.64-1.05-.93-1.63-.21.05-.43.12-.66.19-.43.14-.85.29-1.3.47Z" fill="none"/>
        <path id="パス_1314" data-name="パス 1314" d="M32.46,50.04c-1.82,2.72-2.94,4.45-3.58,5.61-.17.25-.3.49-.44.7a25.851,25.851,0,0,0,3.91,1.88c.24.06,2.19.57,2.19.57l.79.21c.3.09.55.16.76.2a41.79,41.79,0,0,0,.53-4.49,38.375,38.375,0,0,0-.05-4.69c-.16-1.26-.29-2.29-.38-3.26a7.285,7.285,0,0,1,.13-2.55c-.03-.02-.07-.03-.11-.06-.86,1.46-2.09,3.35-3.77,5.88Z" fill="none"/>
        <path id="パス_1315" data-name="パス 1315" d="M43.85,37.04s0,.02.01.02l.09.12.2.25h0a5.347,5.347,0,0,1,1.24,3.79,9,9,0,0,0,1.76-.16,3.431,3.431,0,0,0,2.46-1.62c1.41-2.55.33-4.86-3.64-6.89-.97-.48-1.87-.89-2.85-1.31a.435.435,0,0,1-.07-.04c-.39,1.06-.91,2.22-1.54,3.54a19.411,19.411,0,0,1,2.33,2.29Z" fill="none"/>
        <path id="パス_1316" data-name="パス 1316" d="M46.25,60.4a4.775,4.775,0,0,0,.54,1.51,4.209,4.209,0,0,1,.52,1.56,1.535,1.535,0,0,1-.45,1.24,5.386,5.386,0,0,1-4,1.81,10.173,10.173,0,0,1-4.51-.8c-2.15-1-2.98-2.29-2.64-4.21.14-.81.27-1.57.39-2.29-.21-.05-.46-.12-.76-.2l-.79-.21s-1.94-.5-2.19-.57a25.4,25.4,0,0,1-3.91-1.88c-.3.52-.5.93-.7,1.21a8.7,8.7,0,0,1-.89,1.26,5.769,5.769,0,0,1-1.22,1.18,1.531,1.531,0,0,1-1.43.08c-.81-.35-1.11-1.23-.9-2.81a12.961,12.961,0,0,1-1.87,1.18c-.31.08-.57.17-.83.26-.24.1-.46.2-.68.3a9.4,9.4,0,0,1-4.12-.19c-.23-.06-.46-.13-.7-.2a18.274,18.274,0,0,0,2.84,3.79,24.3,24.3,0,0,0,7.47,5.37A23.968,23.968,0,0,0,35.37,70c4.85.04,8.71-.85,11.79-2.74a.031.031,0,0,0,.02-.01,7.143,7.143,0,0,0,2.67-2.89,3.581,3.581,0,0,0-.03-2.97v-.02a3.957,3.957,0,0,0-2.75-2.04,3.62,3.62,0,0,0-.71-.12,5.375,5.375,0,0,0-.1,1.19Z" fill="#c3cb00"/>
        <path id="パス_1317" data-name="パス 1317" d="M37.21,42.48a4.441,4.441,0,0,1,2.25-1.37,17.948,17.948,0,0,1,3.66,0,21.321,21.321,0,0,0,2.28.11,5.393,5.393,0,0,0-1.24-3.79h0l-.2-.25-.09-.12a.035.035,0,0,1-.01-.02,20.18,20.18,0,0,0-2.33-2.29c-.27.55-.54,1.11-.84,1.7a61.213,61.213,0,0,1-3.47,6.03Z" fill="#c3cb00"/>
        <path id="パス_1318" data-name="パス 1318" d="M14.01,46.78a5.367,5.367,0,0,0,2.72-1.54,6.293,6.293,0,0,0,1.48-2.74,4.017,4.017,0,0,0,.23-1,2.547,2.547,0,0,0-.03-.88,2.248,2.248,0,0,0-.38-.85c-1.44.39-2.57,1.54-3.51,3.57a17.35,17.35,0,0,0-1.17,3.45H14Z" fill="#c3cb00"/>
        <path id="パス_1319" data-name="パス 1319" d="M36.23,44.17s.07.04.11.06c.02-.12.05-.23.07-.35a2.822,2.822,0,0,1-.18.29Z" fill="#aac00d"/>
        <path id="パス_1320" data-name="パス 1320" d="M19.48,39.64h.06a2.6,2.6,0,0,1-.32-.26c-.03-.02-.05-.03-.06-.06a3.087,3.087,0,0,1-.64-1.37v-.1a5.387,5.387,0,0,1,1.65-3.76,16.937,16.937,0,0,1,4.49-3.08,10.3,10.3,0,0,1,4.69-1.17h.01a2.286,2.286,0,0,1,.25.02c.02-.97,0-2-.04-3.13a18.757,18.757,0,0,1-1.52-1.2c-.08-.06-.16-.12-.23-.18a26.886,26.886,0,0,1-2.66.45,24.459,24.459,0,0,1-3.21.18,6.6,6.6,0,0,1-2.51-.44,3.32,3.32,0,0,1-1.54-1.16,2.364,2.364,0,0,1,.21-1.06,3.575,3.575,0,0,1,.85-1.11,6.143,6.143,0,0,1,1.18-.93,10.013,10.013,0,0,1,1.57-.79c.45-.18.88-.33,1.3-.47.22-.07.44-.14.66-.19a25.754,25.754,0,0,1-2.08-5.97v-.03q-.96.12-1.95.3a36.33,36.33,0,0,0-4.39,1.16,52.554,52.554,0,0,0-7.63,3.18,22.208,22.208,0,0,0-5.14,3.66A8.392,8.392,0,0,0,.13,25.87a4.806,4.806,0,0,0,.43,3.39,2.209,2.209,0,0,0,.23.31,2.648,2.648,0,0,1,.27.41,3.182,3.182,0,0,1,.34.46,3.289,3.289,0,0,0,.33.41,7.51,7.51,0,0,0,2.24,1.58c1.22.67,2.78,1.48,4.81,2.42,2.05.97,3.67,1.73,5.05,2.39s2.38,1.14,3.1,1.5a3.951,3.951,0,0,1,1,.83,1.876,1.876,0,0,1,.12.18,1.864,1.864,0,0,1,.39-.1,3.843,3.843,0,0,1,1.04-.02Z" fill="#09c"/>
        <path id="パス_1321" data-name="パス 1321" d="M13.01,50.38a16,16,0,0,1,.36-3.6c-.22,0-.47,0-.77-.02a24.446,24.446,0,0,1-2.48-.29c-.96-.13-1.79-.27-2.54-.41s-1.34-.23-1.8-.28a3.635,3.635,0,0,0-1,.02,3.589,3.589,0,0,0-.8.27.945.945,0,0,0-.43.64,2.315,2.315,0,0,0,.12,1.09,16.374,16.374,0,0,0,2.8,4.98,17.37,17.37,0,0,0,4.54,3.96,19.221,19.221,0,0,0,4.09,1.89,15.6,15.6,0,0,1-1.42-3.54,17.328,17.328,0,0,1-.67-4.7Z" fill="#09c"/>
        <path id="パス_1322" data-name="パス 1322" d="M15.31,15.29Z" fill="#0098cb"/>
        <path id="パス_1323" data-name="パス 1323" d="M27.6,42.6c.26-.85.5-1.75.73-2.73-.12-.01-.22-.04-.34-.05a8.262,8.262,0,0,0-2.77.39,11.489,11.489,0,0,1-3.18.46.508.508,0,0,1-.17-.03s-.27-.1-.56-.22a2.947,2.947,0,0,1,.73,1.12.833.833,0,0,1,.04.15V42a10.842,10.842,0,0,1-.15,1.37l-.1.79v.04a18.968,18.968,0,0,0-.45,3.15,10.118,10.118,0,0,0,3,5.82c.55-1.7,1.08-3.26,1.59-4.94.59-2.06,1.19-3.82,1.63-5.63Z" fill="#09c"/>
        <path id="パス_1324" data-name="パス 1324" d="M15.25,15.31h.03s-.03,0-.04.01Z" fill="#0098cb"/>
        <path id="パス_1325" data-name="パス 1325" d="M15.31,15.29s.03,0,.03-.01S15.31,15.28,15.31,15.29Z" fill="#0098cb"/>
        <path id="パス_1326" data-name="パス 1326" d="M19.92,59.02c.22-.1.44-.2.68-.3a7.406,7.406,0,0,1,.83-.26,13.531,13.531,0,0,0,1.87-1.18,19.069,19.069,0,0,1,.73-3.04c.12-.36.23-.72.35-1.07a10.088,10.088,0,0,1-3-5.82,19.11,19.11,0,0,1,.45-3.15v-.04l.1-.79A10.842,10.842,0,0,0,22.08,42v-.31a.48.48,0,0,0-.04-.15,2.946,2.946,0,0,0-.73-1.12c.29.12.56.22.56.22a.508.508,0,0,0,.17.03,11.881,11.881,0,0,0,3.18-.46,8.289,8.289,0,0,1,2.77-.39c.12,0,.23.04.34.05.24-1.04.46-2.18.66-3.47a46.468,46.468,0,0,0,.62-6.53,1.948,1.948,0,0,1-.25-.02h-.01a10.231,10.231,0,0,0-4.69,1.17,16.86,16.86,0,0,0-4.49,3.08,5.43,5.43,0,0,0-1.65,3.76v.1a2.885,2.885,0,0,0,.64,1.37c0,.02.03.04.06.06a2.6,2.6,0,0,0,.32.26h-.06a4.284,4.284,0,0,0-1.04.02,1.865,1.865,0,0,0-.39.1,2.414,2.414,0,0,1,.38.85,2.558,2.558,0,0,1,.03.88,4.121,4.121,0,0,1-.23,1,6.293,6.293,0,0,1-1.48,2.74,5.409,5.409,0,0,1-2.72,1.54c-.17,0-.39.01-.65,0a16,16,0,0,0-.36,3.6,17,17,0,0,0,.67,4.7,14.976,14.976,0,0,0,1.42,3.54c.24.07.47.14.7.2a9.392,9.392,0,0,0,4.12.19Z" fill="#18943b"/>
        <path id="パス_1327" data-name="パス 1327" d="M40.87,8.5a4.25,4.25,0,1,0-4.25-4.25A4.253,4.253,0,0,0,40.87,8.5Z" fill="#2eb6aa"/>
        <path id="パス_1328" data-name="パス 1328" d="M65.99,37.51a15.03,15.03,0,0,0-3.3-7.64,38.9,38.9,0,0,0-8.37-8.19,27.63,27.63,0,0,0-9.26-4.42A7.931,7.931,0,0,0,43.5,13.9c-.95-1.39-2.74-2.51-5.72-3.15-2.64-.52-4.18-.29-5.2.41a6.719,6.719,0,0,0-1.64,1.97c-1.09-.55-2.02-1.11-3.18-1.66a9.95,9.95,0,0,0-2.96-.96c-2.88-.25-3.73.68-3.21,3.32.82-.11,1.62-.18,2.44-.22a23.271,23.271,0,0,1,4.01.12,12.371,12.371,0,0,1,2.94.73.8.8,0,0,1,.54.35.993.993,0,0,1,.09.66,1.8,1.8,0,0,1-.36.78,6.288,6.288,0,0,1-.81.87,12.422,12.422,0,0,1-1.16.9,12.423,12.423,0,0,1-1.25.78c-.94.27-1.68.44-2.32.59s-1.11.24-1.49.32c-.19.04-.37.08-.55.13a16.916,16.916,0,0,0,.93,1.63,16.474,16.474,0,0,0,3.22,3.88c.3-.06.62-.15.94-.22,1.29-.33,2.36-.62,3.28-.78a4.749,4.749,0,0,1,2.16-.02,3.038,3.038,0,0,1,1.73,1.04,4.1,4.1,0,0,1,.75,2.19,16.641,16.641,0,0,1-.27,4.11,21.566,21.566,0,0,1,5.11,3.08c.63-1.32,1.15-2.48,1.54-3.54.02.01.05.03.07.04.99.42,1.88.83,2.85,1.31,3.97,2.03,5.05,4.34,3.64,6.89a3.4,3.4,0,0,1-2.46,1.62,10.859,10.859,0,0,1-1.76.16,4.5,4.5,0,0,1-.54,1.7l-.01.02c-1.1,1.78-3.02,2.56-5.69,2.32a.22.22,0,0,1-.08-.01,10.155,10.155,0,0,1-2.73-1.03,7.3,7.3,0,0,0-.13,2.55c.09.97.21,2,.38,3.26a40.523,40.523,0,0,1,.05,4.69,41.792,41.792,0,0,1-.53,4.49.277.277,0,0,1,.09.01h.06c.39.08.79.16,1.36.28a18.251,18.251,0,0,0,4.53-.12,16.78,16.78,0,0,1,4.22-.18c.09-.6.2-1.43.36-2.55a22.423,22.423,0,0,0,.18-5.71,4.722,4.722,0,0,0-1.9-3.62A17.317,17.317,0,0,0,55.4,49.02c3.6-.59,6.56-1.68,8.78-4.32a9.153,9.153,0,0,0,1.84-7.18Z" fill="#2eb6aa"/>
        <path id="パス_1329" data-name="パス 1329" d="M32.46,50.04c1.68-2.52,2.91-4.42,3.77-5.88l-.16-.08a23.911,23.911,0,0,1-2.89-1.85c-.54,1.27-1.12,2.56-1.76,3.83a44.2,44.2,0,0,1-5.07,8.18c-.12.15-.23.27-.34.41a20.311,20.311,0,0,0,2.43,1.71c.13-.21.27-.45.44-.7.64-1.16,1.76-2.9,3.58-5.61Z" fill="#2eb6aa"/>
        <path id="パス_1330" data-name="パス 1330" d="M37.76,10.75h0Z" fill="#2cb5a9"/>
        <path id="パス_1331" data-name="パス 1331" d="M37.76,10.75s-.04-.01-.07-.02A.254.254,0,0,1,37.76,10.75Z" fill="#2cb5a9"/>
        <path id="パス_1332" data-name="パス 1332" d="M33.18,42.23a23.154,23.154,0,0,0,2.89,1.85l.16.08c.06-.09.13-.2.18-.29-.02.12-.05.23-.07.35a10.642,10.642,0,0,0,2.73,1.03c.03,0,.05.01.08.01,2.67.24,4.59-.53,5.69-2.32a.031.031,0,0,1,.01-.02,4.332,4.332,0,0,0,.54-1.7c-.68,0-1.42-.03-2.28-.11a17.948,17.948,0,0,0-3.66,0,4.373,4.373,0,0,0-2.25,1.37,62.081,62.081,0,0,0,3.47-6.03c.3-.6.58-1.16.84-1.7a21.9,21.9,0,0,0-5.11-3.08c-.21,1.2-.5,2.52-.9,3.97a60.966,60.966,0,0,1-2.33,6.6Z" fill="#4da635"/>
        <path id="パス_1333" data-name="パス 1333" d="M42.13,59.39a18.752,18.752,0,0,1-4.53.12c-.57-.12-.97-.2-1.36-.27h-.06a.3.3,0,0,0-.09-.03c-.12.72-.25,1.48-.39,2.29-.33,1.93.49,3.21,2.64,4.21a10.173,10.173,0,0,0,4.51.8,5.422,5.422,0,0,0,4-1.81,1.535,1.535,0,0,0,.45-1.24,4.209,4.209,0,0,0-.52-1.56,4.953,4.953,0,0,1-.54-1.51,6.079,6.079,0,0,1,.1-1.19,16.78,16.78,0,0,0-4.22.18Z" fill="#4da635"/>
        <path id="パス_1334" data-name="パス 1334" d="M23.3,57.28c-.21,1.58.09,2.46.9,2.81a1.529,1.529,0,0,0,1.43-.08,5.783,5.783,0,0,0,1.22-1.18,9.573,9.573,0,0,0,.89-1.26c.2-.28.4-.69.7-1.21a20.311,20.311,0,0,1-2.43-1.71,18.383,18.383,0,0,1-2.71,2.63Z" fill="#4da635"/>
        <path id="パス_1335" data-name="パス 1335" d="M23.67,19.84c.18-.05.36-.09.55-.13.38-.09.87-.18,1.49-.32.64-.15,1.38-.32,2.32-.59a12.423,12.423,0,0,0,1.25-.78,11.235,11.235,0,0,0,1.16-.9,6.972,6.972,0,0,0,.81-.87,1.8,1.8,0,0,0,.36-.78,1.058,1.058,0,0,0-.09-.66.888.888,0,0,0-.54-.35,11.908,11.908,0,0,0-2.94-.73,23.271,23.271,0,0,0-4.01-.12c-.82.04-1.62.12-2.44.22v.03a25.3,25.3,0,0,0,2.08,5.97Z" fill="#00979c"/>
        <path id="パス_1336" data-name="パス 1336" d="M26.01,54.65a4.624,4.624,0,0,0,.34-.41,45.3,45.3,0,0,0,5.07-8.18c.64-1.27,1.23-2.55,1.76-3.83a1.213,1.213,0,0,1-.14-.1,18.718,18.718,0,0,0-2.66-1.63c-.02,0-.02,0-.03-.01a5.735,5.735,0,0,0-2.02-.63c-.23.99-.47,1.88-.73,2.73-.43,1.81-1.03,3.56-1.63,5.63-.51,1.69-1.04,3.24-1.59,4.94.07.07.14.15.21.23C25.05,53.83,25.53,54.25,26.01,54.65Z" fill="#00979c"/>
        <path id="パス_1337" data-name="パス 1337" d="M29.57,26.74c.05,1.12.06,2.16.04,3.13a19.423,19.423,0,0,1,6.2,1.54c.2.09.39.18.6.27a17.143,17.143,0,0,0,.27-4.11,4.127,4.127,0,0,0-.75-2.19,3.058,3.058,0,0,0-1.73-1.04,4.743,4.743,0,0,0-2.16.02c-.92.16-1.99.44-3.28.78-.32.07-.64.15-.94.22a2.028,2.028,0,0,0,.23.18,18.756,18.756,0,0,0,1.52,1.2Z" fill="#00979c"/>
        <path id="パス_1338" data-name="パス 1338" d="M29.61,29.87a46.467,46.467,0,0,1-.62,6.53c-.21,1.29-.42,2.43-.66,3.47a5.948,5.948,0,0,1,2.02.63.044.044,0,0,0,.03.01,18.169,18.169,0,0,1,2.66,1.63,1.213,1.213,0,0,0,.14.1,63.189,63.189,0,0,0,2.33-6.6c.39-1.45.69-2.76.9-3.97-.21-.09-.39-.18-.6-.27a19.7,19.7,0,0,0-6.2-1.54Z" fill="#18943b"/>
        <path id="パス_1339" data-name="パス 1339" d="M26.01,54.65c-.48-.4-.96-.81-1.42-1.26-.07-.08-.14-.15-.21-.23-.12.36-.23.71-.35,1.07a19.069,19.069,0,0,0-.73,3.04,17.867,17.867,0,0,0,2.71-2.63Z" fill="#18943b"/>
      </g>
    </g>
  </g>
</svg>
