<?xml version="1.0" encoding="utf-8"?><!--Generator: Adobe Illustrator 27.9.0, SVG Export Plug-In . SVG Version: 6.00 Build 0)--><svg version="1.1" id="レイヤー_1" xmlns="http://www.w3.org/2000/svg" xmlns:xlink="http://www.w3.org/1999/xlink" x="0px" y="0px" viewBox="0 0 820 116" style="enable-background:new 0 0 820 116" xml:space="preserve"><style type="text/css">.st0{fill:#FFFFFF;}</style><path class="st0" d="M403.9,91.3c3.4-2.8,8.5-3.3,14.8-1.7c1.1,0.3,2.3,0.7,3.4,1c3.5,1.1,6.9,2.1,10.3,1.9c2.5-0.2,5.2-1.5,6.8-3.5
	c0.3-0.4,0.7-0.9,1-1.4c-2.7,1.7-6.6,2.7-11.7,1.3c-4.9-1.4-9.1-4.7-12.9-8l-0.7-0.6c-3.4-3-6.9-6-11.1-7.6
	c-4.1-1.6-9.9-1.6-13.1,1.5c-0.3,0.3-0.8,0.4-1.1,0.2c-0.4-0.1-0.7-0.5-0.7-0.9c-0.6-4.6-5.6-9.1-9.7-10.1
	c-4.6-1.2-9.8,0.2-12.8,2.1c0.2,1.2,0.3,2.4,0.1,3.6c-0.6,5.9-5.5,11.1-11.1,11.7c-0.4,0-0.8,0.1-1.2,0.1c-5.6,0-10.8-4.3-11.4-9.8
	c-0.4-3.2,0.8-6.4,3.1-8.3c2.5-2.1,6.3-2.5,8.9-0.8c0.5,0.3,0.7,1,0.3,1.5c-0.3,0.5-1,0.7-1.5,0.3c-1.8-1.1-4.5-0.9-6.2,0.6
	c-1.7,1.4-2.6,3.9-2.3,6.3c0.5,4.6,5.4,8.3,10.2,7.7c4.7-0.5,8.7-4.8,9.2-9.7c0.1-1.2,0-2.5-0.3-3.8c-0.8-3.5-3.2-6.6-6.4-8.4
	c-5.7-3.2-13.2-2.2-18.5,2.5c2.5,5.1,1.4,11.6-2.7,15.1c-2.3,2-5.2,3-8.1,2.8c-3-0.2-5.9-1.9-7.5-4.3c-1.8-2.7-2-6.3-0.4-8.9
	c1.7-2.9,5.4-4.2,8.4-3c0.6,0.2,0.9,0.9,0.6,1.5c-0.2,0.6-0.9,0.9-1.5,0.6c-1.9-0.8-4.5,0.2-5.6,2.1c-1.1,1.9-1,4.5,0.4,6.5
	c1.2,1.9,3.5,3.1,5.8,3.3c2.3,0.2,4.7-0.7,6.5-2.2c3.4-3,4.2-8.9,1.8-13.1c-0.2-0.3-0.4-0.6-0.6-0.9c-3-4-9.1-5.8-14.1-4
	c-4.9,1.7-8.7,6.3-9.7,11.7c-1,5.2,0.3,10.9,3.5,15.4c0.4,0.5,0.3,1.2-0.2,1.5c-2.9,2.3-4.3,6.5-3.2,9.8c1.2,3.4,4.6,5.8,8.1,5.9
	c0.1-2.3,0.7-4.5,1.7-6.4c2.6-4.8,8.3-7.5,13.2-6.2c2.6,0.7,5,2.6,6.4,5.2c1.3,2.4,1.5,5,0.7,7.3c-1,2.9-3.6,5-6.4,5.2
	c-0.6,0-1.2-0.4-1.2-1c0-0.6,0.4-1.2,1-1.2c1.9-0.1,3.8-1.7,4.5-3.7c0.6-1.7,0.4-3.7-0.6-5.5c-1.1-2-2.9-3.5-5-4
	c-4-1-8.6,1.2-10.7,5.1c-1,1.9-1.5,4.1-1.5,6.4c0.1,2.1,0.6,4.3,1.6,6.3c3.1,6.4,10.4,10.4,17.5,9.5c7-0.8,13-6,14.6-12.6
	c-1.3-1.7-2.2-3.6-2.7-5.6c-1.7-6.6,1.7-13.9,7.7-16.6c3.7-1.6,7.9-1.4,11.1,0.7c3.4,2.3,5.1,6.6,3.9,10.4c-1.3,4-5.8,6.5-9.6,5.3
	c-2.9-0.9-4.8-3.7-4.4-6.4c0.1-0.6,0.7-1,1.3-0.9c0.6,0.1,1,0.7,0.9,1.3c-0.3,1.7,1.2,3.4,2.8,3.9c2.7,0.8,5.9-1,6.8-3.8
	c0.9-2.7-0.4-6.1-3-7.8c-2.4-1.6-5.9-1.8-8.9-0.5c-4.9,2.2-7.8,8.5-6.4,14c0.5,1.9,1.4,3.6,2.7,5.2c0,0,0,0,0.1,0.1
	c2.3,2.8,5.8,4.8,9.4,5.3c5.2,0.8,10.3-0.8,14.5-4.6c-0.9-0.8-1.7-1.7-2.5-2.8c-0.3-0.5-0.2-1.2,0.3-1.6c0.5-0.3,1.2-0.2,1.6,0.3
	c0.8,1.2,1.8,2.2,2.9,2.9c3.5,2.4,8.3,2,11.9-1c1.4-1.2,2.4-2.8,3.4-4.6C401,94.7,402.1,92.7,403.9,91.3L403.9,91.3z"/><path class="st0" d="M0.4,37.5C1.9,30.6,8.1,25,15.2,24.3c0.3,0,0.6-0.2,0.8-0.5c0.2-0.3,0.3-0.6,0.2-0.9c-1.5-6,2.7-11.3,7.2-13.8
	c5.2-2.8,12.5-2.8,17.7,0c5.2,2.8,9.5,8.1,10.5,12.9c0.1,0.4,0.4,0.7,0.7,0.9c0.4,0.1,0.8,0.1,1.1-0.2c2.7-2.2,6.5-2.9,9.8-1.7
	c3.5,1.3,6.1,4.7,6.4,8.6c-1.1,1-2,2.1-2.7,3.3c-2.5,4.4-2,10.4,1.2,14.1c3.4,4,9.5,5,13.8,2.4c2.8-1.7,4.5-4.8,4.3-7.7
	c-0.1-1.7-1-3.4-2.4-4.5c-1.2-1-2.7-1.5-4.2-1.3c-1.7,0.2-3.3,1.4-4.1,3.2c-0.7,1.6-0.6,3.3,0.3,4.6c0.4,0.5,1.1,0.6,1.6,0.3
	c0.5-0.4,0.6-1.1,0.3-1.6c-0.6-0.9-0.3-1.9-0.1-2.3c0.4-1,1.3-1.7,2.2-1.8c0.8-0.1,1.7,0.2,2.5,0.8c0.9,0.7,1.5,1.8,1.6,2.9
	c0.2,2.1-1.1,4.3-3.2,5.5c-3.4,2-8.2,1.1-10.9-2c-2.6-3-3-7.8-0.9-11.4c0.7-1.3,1.8-2.4,3-3.4c2.1-1.5,4.7-2.4,7.2-2.4
	c0,0,0,0,0.1,0c4.1,0,8.2,2.1,10.9,5.5c1.3,1.6,2.3,3.5,3.3,5.5c1.1,2.1,2.2,4.2,3.7,6.1c3.2,3.9,8.1,6.2,13.1,6.3
	c4.3,0.1,8.3-1.3,11.3-3.8c-0.3,3.8-3.3,8.2-8.4,9.9c-5.1,1.7-10.8,0.8-16.6-0.4l-0.3-0.1c-5.7-1.2-11.7-2.3-17.4-0.8
	c-2.5,0.6-4.8,1.8-7.1,2.9c-1.3,0.6-2.6,1.3-3.9,1.8c-5.4,2.2-10.9,2.5-15.5,1c-2.8-0.9-5.4-2.6-7.3-4.8c-1.5-1.7-2.5-3.8-3-5.8
	c-1.1-5.1,1.5-10.7,5.9-12.6c2.3-1,5.1-0.9,7.5,0.3c2.2,1.1,3.8,2.9,4.3,4.9c0.6,2.2,0,4.6-1.4,6c-1.5,1.5-4,1.7-5.5,0.6
	c-0.7-0.6-1.2-1.6-1.3-2.6c0-0.9,0.3-1.8,0.9-2.3c0.5-0.4,0.5-1.1,0.1-1.6c-0.4-0.5-1.1-0.5-1.6-0.1c-1.1,1-1.7,2.5-1.7,4.1
	c0.1,1.8,0.9,3.4,2.2,4.4c2.5,1.8,6.2,1.5,8.5-0.8c2-2,2.8-5.2,2-8.2c-0.7-2.7-2.7-5.1-5.5-6.4c-3-1.5-6.6-1.6-9.4-0.4
	c-5.4,2.4-8.6,9-7.2,15.2c0.5,2.1,1.4,4.2,2.8,6c-2.1,1.9-4.9,3-7.7,2.9c-2.8-0.1-5.6-1.4-7.5-3.5c0.7-0.4,1.4-0.9,2-1.5
	c3.7-3.2,6-7.8,5.9-12.3c0-5-2.9-9.7-7.2-11.6c-4.6-2.1-10.5-0.4-13,3.6c-1.3,2.1-1.7,4.9-0.9,7.5c0.7,2.4,2.3,4.4,4.4,5.3
	c1.9,0.9,4,0.9,5.6,0.1c2-1,3-3.3,2.5-5.3c-0.3-1.1-1.2-2.1-2.4-2.5c-1.1-0.4-2.2-0.3-3.1,0.3c-0.5,0.3-0.7,1.1-0.3,1.6
	c0.3,0.5,1.1,0.7,1.6,0.3c0.4-0.2,0.8-0.1,1,0c0.5,0.2,0.9,0.6,1,1c0.3,0.9-0.3,2.1-1.3,2.6c-1,0.5-2.3,0.5-3.6-0.1
	c-1.5-0.7-2.6-2.1-3.2-3.9c-0.6-2-0.3-4.1,0.7-5.6c2-3.1,6.6-4.3,10.2-2.8c3.4,1.5,5.8,5.4,5.8,9.5c0,3.8-1.9,7.8-5.1,10.6
	c-0.8,0.7-1.8,1.4-2.8,1.9c-5.3,2.9-12,2.8-17-0.2C2.1,52.1-1.2,44.5,0.4,37.5z"/><path class="st0" d="M586.7,41.4c3.9-1.1,7.4-4.2,9.1-7.9c0.1-0.3,0.4-0.5,0.8-0.6s0.7,0,1,0.2c4.4,3.3,10.5,4.7,16.2,3.9
	c4.1-0.6,8.2-2.7,11.4-5.7c-2.2,0.6-4.3,1-6.4,1.2c-4.1,0.4-8-0.5-10.7-2.6c-2.2-1.6-3.8-3.9-5.2-6.2c-0.7-1-1.3-2-2.1-3
	c-2.1-2.6-5.4-4.8-8.3-3.9c-1.4,5.1-5.7,9.3-10.7,10.2c-3.7,0.7-7.5-0.4-10-2.8c-2.8-2.6-3.8-6.8-2.5-10.2c1.4-3.6,5.5-5.9,9.1-5
	c2.2,0.5,3.9,2.2,4.4,4.1c0.6,2.3-0.8,4.9-3,5.5c-0.6,0.2-1.2-0.2-1.4-0.8c-0.2-0.6,0.2-1.2,0.8-1.4c1-0.3,1.6-1.6,1.4-2.7
	c-0.3-1.1-1.4-2.1-2.8-2.5c-2.5-0.6-5.5,1-6.5,3.6c-1,2.5-0.2,5.7,1.9,7.7c2,1.9,5.1,2.7,8.1,2.2c4.4-0.8,8.2-4.6,9.1-9.2
	c0.1-0.3,0.1-0.7,0.2-1c0.5-4.8-2.1-10-6.5-12.6c-4.2-2.5-9.9-2.6-14.5-0.3c-4.4,2.3-7.6,6.5-8.8,11.6c-0.1,0.3-0.3,0.6-0.6,0.7
	c-0.3,0.2-0.6,0.2-0.9,0.1c-4.6-1.6-10.1,0.1-12.6,4.2c-2.6,4.1-2,10,1.3,13.5c2.1,2.2,5.4,3.4,8.7,3.2c1.7-0.1,3.3-0.6,4.7-1.4
	c1-0.6,2.4-1.6,3.1-3.2c1.1-2.3,0.4-5.4-1.6-7c-2-1.6-5.2-1.7-7.2-0.1c-0.5,0.4-1.2,0.3-1.6-0.2c-0.4-0.5-0.3-1.2,0.2-1.6
	c2.9-2.2,7.2-2.1,10,0.2c2.8,2.3,3.8,6.5,2.2,9.8c-0.8,1.7-2.2,3.1-4,4.2c-1.3,0.8-2.7,1.3-4.2,1.5c1.5,2.3,3.8,4.1,6.5,4.7
	c2.9,0.7,6.3,0,8.9-1.9c0.4-0.3,0.9-0.3,1.3,0C578.2,41.9,582.7,42.6,586.7,41.4L586.7,41.4z"/></svg>