<svg xmlns="http://www.w3.org/2000/svg" width="17.09" height="17.091" viewBox="0 0 17.09 17.091">
  <path id="Icon_awesome-phone-alt" data-name="Icon awesome-phone-alt" d="M15.069,10.961,11.676,9.507a.727.727,0,0,0-.848.209l-1.5,1.836A11.229,11.229,0,0,1,3.957,6.184l1.836-1.5A.725.725,0,0,0,6,3.833L4.547.44A.732.732,0,0,0,3.714.019L.563.746A.727.727,0,0,0,0,1.454,14.056,14.056,0,0,0,14.057,15.512a.727.727,0,0,0,.709-.563l.727-3.151a.736.736,0,0,0-.424-.836Z" transform="matrix(0.999, 0.035, -0.035, 0.999, 1.058, 0.53)" fill="none" stroke="#197cc0" stroke-width="1"/>
</svg>
