<?xml version="1.0" encoding="utf-8"?>
<!-- Generator: Adobe Illustrator 15.0.0, SVG Export Plug-In . SVG Version: 6.00 Build 0)  -->
<!DOCTYPE svg PUBLIC "-//W3C//DTD SVG 1.1//EN" "http://www.w3.org/Graphics/SVG/1.1/DTD/svg11.dtd">
<svg version="1.1" id="レイヤー_1" xmlns="http://www.w3.org/2000/svg" xmlns:xlink="http://www.w3.org/1999/xlink" x="0px"
	 y="0px" width="595.279px" height="841.891px" viewBox="0 0 595.279 841.891" enable-background="new 0 0 595.279 841.891"
	 xml:space="preserve">
<path fill="none" stroke="#231815" stroke-width="0.93" stroke-miterlimit="10" d="M1.379,834.908L593.901,6.981"/>
<g>
</g>
<g>
	<path fill="#231815" d="M71.588,92.404c0-7.402,0-13.366-1.233-17.068c-1.439-3.289-3.497-4.317-6.991-4.112l-5.347,0.411
		c-2.056,0.206-2.673,0.206-2.673-2.263c-0.206-2.467,0.411-2.672,2.262-3.083c8.019-1.645,20.974-5.552,29.404-8.637
		c1.029,0,2.263,0.824,2.263,1.646c-0.617,14.599-1.028,29.609-1.028,48.938v75.672c0,11.924-0.206,17.68,1.439,20.972
		c1.439,3.084,4.524,3.084,7.608,3.29l3.702,0.206c1.439,0,1.85,0.411,1.85,2.264c0,2.056-0.411,2.467-1.85,2.672
		c-7.198,0.412-20.153,1.851-27.966,3.29c-1.233,0-1.85-0.617-1.85-2.056c0.206-5.348,0.411-9.049,0.411-13.78
		c-6.991,10.901-17.89,15.835-27.143,15.835c-27.554,0-43.182-20.153-43.182-48.323c0-28.787,17.479-49.761,45.238-49.761
		c10.693,0,19.124,4.523,25.087,10.486V92.404z M71.588,154.297c0-6.991,0.411-10.898-3.908-17.477
		c-3.906-6.169-10.486-11.721-19.74-11.721c-17.272,0-27.554,17.683-27.554,42.564c0,24.881,11.721,39.275,27.348,39.275
		c8.637,0,14.806-3.701,19.74-10.488c4.319-5.139,4.113-9.251,4.113-16.244V154.297z"/>
	<path fill="#231815" d="M104.073,167.457c0,26.115,16.862,39.686,30.433,39.686c12.955,0,20.768-4.523,27.965-14.394
		c0.411-0.617,1.028-1.028,1.645-1.028c0.823,0,3.497,1.439,3.497,3.083c0,0.617-0.206,0.822-1.028,2.056
		c-9.254,14.19-20.357,19.741-35.78,19.741c-26.937,0-45.238-20.358-45.238-48.118c0-26.937,18.507-49.555,45.033-49.555
		c25.909,0,37.424,22.618,38.041,36.396c0,1.44,0,2.057-1.028,3.496c-1.233,1.233-2.056,1.028-3.291,1.028
		c-20.151-0.617-41.536-0.822-59.631-0.411C104.484,161.084,104.073,163.757,104.073,167.457z M147.872,151.419
		c1.645,0,2.261-1.439,2.056-3.291c-1.028-10.897-6.58-23.235-19.329-23.235c-12.132,0-20.974,10.897-24.676,27.143
		C120.935,152.447,132.862,152.447,147.872,151.419z"/>
	<path fill="#231815" d="M190.392,170.335c-14.599-6.99-22.618-11.103-22.618-27.759c0-11.103,8.842-23.852,29.198-23.852
		c4.73,0,10.282,1.028,13.777,1.85c3.908,0.617,8.021,0.617,12.955,0.412c0.411,6.786,1.028,15.834,1.852,22.62
		c0,1.233-0.413,1.645-2.263,1.85s-2.056-0.411-2.672-1.439c-4.319-10.899-12.338-19.74-23.237-19.74
		c-10.486,0-15.627,6.786-15.627,14.599c0,7.197,4.524,10.486,16.861,16.039l6.787,3.085c16.039,7.197,25.085,13.364,25.085,29.405
		c0,13.979-9.869,28.993-34.134,28.993c-10.28,0-18.301-2.056-26.525-5.551c-1.645-5.965-3.495-15.013-4.524-21.592
		c0-1.028,0.206-1.439,2.263-1.645c1.645-0.206,2.056-0.206,2.467,1.233c5.757,12.746,16.451,21.797,27.142,21.797
		c11.927,0,18.096-8.021,18.096-18.097c0-9.457-6.169-13.16-17.685-18.714L190.392,170.335z"/>
	<path fill="#231815" d="M241.26,154.502c0-7.813-0.206-13.16-1.439-17.066c-1.233-3.291-3.495-4.524-7.404-4.113l-5.142,0.411
		c-2.056,0.206-2.673,0.206-2.878-2.672c0-2.057,0.411-2.263,2.467-2.674c7.198-1.851,20.563-5.758,28.995-8.841
		c1.234,0,2.467,0.616,2.467,1.85c-0.617,14.805-0.822,26.114-0.822,35.78v26.116c0,12.129,0,18.297,1.439,21.589
		c1.645,2.878,6.17,2.878,11.927,3.495c1.233,0.206,1.645,0.617,1.645,2.264c0,2.261-0.411,2.672-1.645,2.672
		c-6.579-0.206-14.599-0.617-20.77-0.617c-6.373,0-15.216,0.411-21.592,0.617c-1.439,0-1.85-0.411-1.85-2.672
		c0-1.647,0.411-2.264,1.85-2.264c5.143-0.617,9.257-0.822,11.107-3.495c1.85-3.498,1.645-9.871,1.645-21.589V154.502z
		 M260.382,75.131c0,6.58-6.17,12.338-12.337,12.338c-6.168,0-12.338-5.758-12.338-12.338c0-6.375,6.17-12.338,12.338-12.338
		C254.212,62.793,260.382,68.756,260.382,75.131z"/>
	<path fill="#231815" d="M315.402,199.534c33.312-0.411,36.602,16.041,36.602,26.32c0,15.63-10.076,36.194-50.996,36.194
		c-26.114,0-41.33-12.34-41.33-25.498c0-10.696,7.195-18.714,20.975-24.059c-10.693-3.292-13.78-7.609-13.78-14.396
		c0-7.812,6.993-13.98,19.947-19.739c-13.16-4.114-23.647-11.926-23.647-28.17c0-16.451,14.807-31.461,36.19-31.461
		c9.254,0,14.394,2.467,19.947,4.729c12.13,0,23.851-0.617,32.282-1.439c0.822,0,1.439,0.617,1.233,1.439l-2.673,5.963
		c-0.411,1.235-0.822,1.44-1.85,1.44c-7.198-0.618-13.777-0.618-20.77-0.618c5.348,4.936,8.432,11.721,8.432,18.712
		c0,17.273-12.132,31.256-35.78,31.256c-2.261,0-4.317-0.411-6.17-0.617c-7.606,4.114-11.718,8.021-11.718,13.571
		c0,4.523,4.729,6.784,14.805,6.579L315.402,199.534z M301.419,214.958c-4.318,0-9.46-0.411-13.777-0.822
		c-1.85,1.233-3.289,2.056-4.729,3.289c-4.934,4.934-6.579,10.074-6.579,16.244c0,13.365,11.102,22.414,28.579,22.414
		c20.153,0,32.079-11.104,32.079-24.881c0-8.843-3.7-16.244-24.47-16.244H301.419z M280.858,149.362
		c0,15.423,7.195,25.497,19.122,25.497c11.516,0,18.919-10.074,18.919-25.497c0-14.805-7.403-25.085-18.919-25.085
		C287.642,124.276,280.858,134.968,280.858,149.362z"/>
	<path fill="#231815" d="M346.615,133.529c-2.264,0.206-2.881,0.206-3.086-2.878c0-1.44,0.411-1.852,2.675-2.468
		c7.401-1.645,19.739-5.141,28.171-8.636c1.027,0,2.467,0.616,2.467,1.645c-0.411,5.552-0.411,11.515-0.411,16.862
		c7.195-11.927,18.3-19.124,31.871-19.124c5.965,0,28.995,3.084,28.995,28.787c0,7.402-0.205,17.479-0.205,22.619v13.368
		c0,12.129,0,18.091,1.645,21.178c1.645,3.084,5.345,3.29,10.896,3.906c1.236,0.206,1.647,0.62,1.647,2.264
		c0,1.85-0.205,2.261-1.647,2.261c-6.578-0.206-13.982-0.617-20.355-0.617c-6.581,0-14.394,0.411-21.386,0.617
		c-1.439,0-1.645-0.411-1.645-2.261c0-1.853,0.411-2.264,1.645-2.264c4.937-0.411,8.843-0.617,10.487-3.906
		c2.056-3.292,1.851-9.459,1.851-21.178v-27.145c0-5.756,0.616-10.897-2.262-16.861c-2.878-6.169-7.815-10.487-17.066-10.487
		c-8.432,0-15.833,4.935-20.152,11.515c-3.906,5.758-4.317,9.666-4.317,16.04v26.938c0,12.129-0.206,18.297,1.233,21.178
		c1.645,3.29,5.551,3.29,11.516,3.906c1.233,0.206,1.645,0.411,1.645,2.264c0,1.85-0.411,2.261-1.645,2.261
		c-6.582-0.206-13.982-0.617-20.152-0.617c-6.785,0-14.6,0.411-21.384,0.617c-1.233,0-1.645-0.411-1.645-2.261
		c0-1.853,0.411-2.059,1.645-2.264c4.934-0.617,8.84-0.617,10.693-3.906c1.645-3.292,1.645-9.459,1.645-21.178v-29.407
		c0-7.402,0-13.16-1.645-16.86c-1.236-3.496-3.292-4.73-6.787-4.319L346.615,133.529z"/>
</g>
</svg>
